<svg width="207" height="58" viewBox="0 0 217 60" fill="none" xmlns="http://www.w3.org/2000/svg" class="css-m3utu0 ecux39o0"><path id="circle1" d="M39.6375 56.3018L30.1236 35.8504L20.5786 56.3152L17.3532 49.3994L30.1259 22.0078H30.137L39.6553 42.4214L53.9139 11.8578C51.124 8.18487 47.5251 5.20444 43.3966 3.14797C39.2681 1.0915 34.7211 0.0143433 30.1088 0.000142266C25.4964 -0.0140588 20.9429 1.03508 16.8018 3.06609C12.6607 5.0971 9.04351 8.0553 6.23109 11.711H47.5275L44.7937 17.5723H25.7215L14.1122 42.4681L10.8779 35.5346L19.2529 17.5723H2.6898C0.619905 22.1262 -0.278834 27.1252 0.0753099 32.1149C0.429454 37.1045 2.02525 41.9265 4.71758 46.1424C7.40991 50.3582 11.1134 53.8342 15.4912 56.2543C19.8691 58.6743 24.7824 59.9616 29.7845 59.9992C34.7865 60.0367 39.7187 58.8233 44.1323 56.4692C48.546 54.1152 52.3012 50.6952 55.0566 46.5202C57.8119 42.3453 59.4799 37.5478 59.9089 32.564C60.3379 27.5802 59.5143 22.5683 57.513 17.9839L39.6375 56.3018Z" fill="#FC5000"></path><path id="diamond" d="M57.3106 4.98438L60.8363 11.2884L57.5175 18.0017L53.905 11.849L57.3106 4.98438Z" fill="#3EAD92"></path><g id="letters" fill="#fff"><path d="M67.4062 24.1324L73.8315 24.1449L73.8023 39.8768L76.3285 39.881L76.3577 24.1491L82.7851 24.1616L82.7893 21.9279L67.4104 21.8987L67.4062 24.1324Z"></path><path d="M116.232 28.4241C115.791 27.8417 115.235 27.3554 114.6 26.9949C113.656 26.4736 112.592 26.2064 111.514 26.2197C110.288 26.1965 109.078 26.4948 108.003 27.0847C106.984 27.6545 106.139 28.4919 105.561 29.5065C104.971 30.6281 104.662 31.8758 104.66 33.1428C104.658 34.4098 104.963 35.6585 105.548 36.7822C106.119 37.8045 106.96 38.6497 107.98 39.2248C109.049 39.8193 110.255 40.1226 111.478 40.1045C112.573 40.1248 113.654 39.8568 114.613 39.3272C115.278 38.9497 115.854 38.4321 116.301 37.8102V39.9603H118.649L118.685 21.9153H116.236L116.232 28.4241ZM115.643 35.6852C115.265 36.385 114.698 36.9644 114.007 37.3568C113.296 37.7447 112.5 37.948 111.69 37.948C110.881 37.948 110.085 37.7447 109.374 37.3568C108.688 36.9541 108.124 36.3718 107.744 35.6726C107.325 34.8965 107.115 34.0243 107.136 33.1422C107.118 32.2596 107.335 31.3879 107.763 30.616C108.151 29.929 108.716 29.3583 109.399 28.9632C110.11 28.5759 110.906 28.3729 111.715 28.3729C112.525 28.3729 113.321 28.5759 114.032 28.9632C114.717 29.3556 115.281 29.9297 115.661 30.6223C116.077 31.3988 116.282 32.2703 116.257 33.1506C116.272 34.0341 116.061 34.9068 115.643 35.6852Z"></path><path d="M130.774 27.1307C129.705 26.5532 128.51 26.2507 127.296 26.2507C126.081 26.2507 124.886 26.5532 123.818 27.1307C122.799 27.7068 121.959 28.5527 121.39 29.5754C120.786 30.6748 120.479 31.9131 120.502 33.1673C120.475 34.424 120.785 35.665 121.4 36.7613C122.002 37.8063 122.884 38.6619 123.947 39.2311C125.006 39.7599 126.163 40.0632 127.345 40.1218C128.526 40.1804 129.708 39.9931 130.813 39.5717C131.696 39.2175 132.48 38.6555 133.099 37.9335L131.745 36.3454C131.271 36.8797 130.681 37.2998 130.021 37.5741C129.328 37.854 128.586 37.9925 127.838 37.9815C126.945 37.996 126.063 37.7916 125.268 37.386C124.54 37.01 123.935 36.4345 123.523 35.7269C123.214 35.1945 123.017 34.6042 122.944 33.9927L133.927 34.0156C133.943 33.8944 133.956 33.767 133.966 33.6291C133.977 33.4912 133.979 33.3742 133.979 33.2697C134.01 31.99 133.718 30.723 133.131 29.5859C132.591 28.5622 131.774 27.7113 130.774 27.1307ZM125.027 28.9026C125.727 28.524 126.51 28.3258 127.305 28.3258C128.1 28.3258 128.883 28.524 129.583 28.9026C130.235 29.2873 130.768 29.8439 131.125 30.5115C131.41 31.0439 131.584 31.6291 131.635 32.2312L122.94 32.2145C123.005 31.6177 123.184 31.039 123.467 30.5094C123.826 29.8381 124.367 29.2813 125.027 28.9026Z"></path><path d="M154.931 35.4552L144.236 22.0468L142.143 22.0447L142.109 40.0103L144.661 40.0145L144.688 26.627L155.38 40.0354L157.474 40.0396L157.507 22.0739L154.956 22.0698L154.931 35.4552Z"></path><path d="M179.506 38.1573C178.825 38.1573 178.302 37.9595 177.939 37.5639C177.573 37.1711 177.391 36.6048 177.393 35.8693L177.406 28.347H181.136V26.3181H177.406V23.3406H174.955V26.3181H172.355V28.345H174.953L174.938 35.9633C174.938 37.3327 175.31 38.3858 176.054 39.1227C176.798 39.8596 177.852 40.2294 179.217 40.2322C179.766 40.2344 180.312 40.1577 180.839 40.0044C181.332 39.8645 181.79 39.6201 182.18 39.2877L181.418 37.5158C180.879 37.9531 180.2 38.181 179.506 38.1573Z"></path><path d="M183.878 26.3349L183.852 40.0901L186.303 40.0948L186.329 26.3396L183.878 26.3349Z"></path><path d="M198.852 27.2749C197.746 26.6705 196.502 26.3631 195.241 26.3827C193.975 26.3551 192.725 26.6621 191.616 27.2728C190.578 27.8518 189.713 28.6962 189.108 29.7196C188.48 30.8077 188.16 32.0468 188.185 33.3032C188.162 34.5577 188.477 35.7954 189.096 36.8867C189.692 37.9254 190.558 38.7826 191.603 39.3669C192.715 39.9585 193.954 40.2691 195.213 40.2717C196.472 40.2742 197.713 39.9686 198.827 39.3816C199.871 38.805 200.738 37.9547 201.334 36.9222C201.931 35.8192 202.245 34.5853 202.247 33.3311C202.25 32.077 201.941 30.8418 201.349 29.7364C200.759 28.7019 199.895 27.8502 198.852 27.2749ZM199.18 35.8419C198.81 36.5428 198.246 37.1229 197.556 37.5135C196.843 37.9117 196.037 38.1143 195.22 38.1007C194.407 38.1131 193.606 37.9074 192.899 37.5052C192.211 37.1042 191.647 36.5215 191.269 35.821C190.855 35.0476 190.649 34.18 190.671 33.3032C190.653 32.4198 190.869 31.5474 191.298 30.7748C191.686 30.0879 192.251 29.5178 192.934 29.1241C193.642 28.7241 194.445 28.5214 195.258 28.537C196.066 28.5282 196.861 28.7306 197.567 29.1241C198.25 29.5153 198.81 30.09 199.184 30.7832C199.59 31.5628 199.79 32.4331 199.765 33.3115C199.786 34.1921 199.585 35.0637 199.18 35.8461V35.8419Z"></path><path d="M216.196 29.0133C215.755 28.174 215.065 27.4916 214.221 27.0596C213.311 26.6147 212.308 26.3927 211.296 26.4119C210.178 26.3849 209.072 26.6385 208.078 27.1495C207.421 27.4943 206.852 27.9863 206.417 28.587V26.531H204.068L204.043 40.1337H206.492L206.507 33.1276C206.479 32.2678 206.66 31.4141 207.033 30.6389C207.363 29.9927 207.886 29.4648 208.529 29.1282C209.233 28.773 210.014 28.5978 210.803 28.6184C211.96 28.6184 212.857 28.9541 213.494 29.6255C214.13 30.297 214.447 31.2895 214.445 32.6031L214.43 40.1483H216.879L216.896 32.3189C216.904 30.99 216.671 29.8881 216.196 29.0133Z"></path><path d="M165.417 26.345H160.281V28.4805H165.296C166.389 28.5181 167.22 28.8022 167.782 29.3392C168.387 29.9146 168.688 30.7232 168.685 31.7652V32.1037H164.807C163.461 32.1037 162.393 32.2813 161.602 32.6365C160.894 32.922 160.295 33.4237 159.89 34.0699C159.537 34.6773 159.355 35.3691 159.364 36.0717C159.351 36.8063 159.564 37.5273 159.972 38.1382C160.407 38.7695 161.012 39.2644 161.717 39.5653C162.55 39.9258 163.45 40.1032 164.358 40.0856C165.599 40.0856 166.628 39.8523 167.446 39.3856C167.988 39.0837 168.452 38.6603 168.802 38.1486V39.9393H171.126L171.14 31.878C171.14 30.0128 170.641 28.626 169.642 27.7178C168.643 26.8095 167.235 26.3519 165.417 26.345ZM168.683 34.8785C168.687 35.4136 168.553 35.9407 168.294 36.4091C168.036 36.8775 167.661 37.2714 167.206 37.5531L167.185 37.5657C166.449 37.9868 165.611 38.1978 164.763 38.1758C163.827 38.1758 163.096 37.9731 162.569 37.5677C162.317 37.3847 162.113 37.1428 161.976 36.8631C161.839 36.5834 161.772 36.2744 161.781 35.963C161.778 35.6839 161.833 35.4072 161.944 35.1509C162.054 34.8946 162.218 34.6644 162.423 34.4753C162.841 34.0574 163.677 33.863 164.899 33.8651H168.677L168.683 34.8785Z"></path><path d="M97.2143 26.345H92.0782V28.4805H97.0931C98.1838 28.5181 99.0154 28.8022 99.5796 29.3392C100.181 29.9146 100.482 30.7232 100.48 31.7652V32.1037H96.5999C95.2557 32.1037 94.188 32.2813 93.3967 32.6365C92.6889 32.922 92.0893 33.4237 91.6833 34.0699C91.3301 34.6773 91.1481 35.3691 91.1568 36.0717C91.1445 36.8063 91.3566 37.5273 91.7648 38.1382C92.1995 38.7695 92.8046 39.2644 93.5096 39.5653C94.3426 39.9258 95.2432 40.1032 96.1507 40.0856C97.3919 40.0856 98.422 39.8523 99.2411 39.3856C99.7821 39.0837 100.246 38.6602 100.595 38.1486V39.9393H102.919L102.933 31.878C102.933 30.0128 102.435 28.626 101.437 27.7178C100.44 26.8095 99.0321 26.3519 97.2143 26.345ZM100.48 34.8785C100.484 35.4136 100.35 35.9407 100.091 36.4091C99.8327 36.8775 99.4578 37.2714 99.0029 37.5531L98.982 37.5657C98.2482 37.9853 97.4137 38.1963 96.5686 38.1758C95.6325 38.1758 94.9012 37.9731 94.3746 37.5677C94.1225 37.3847 93.9189 37.1428 93.7816 36.8631C93.6443 36.5834 93.5775 36.2744 93.5869 35.963C93.5841 35.684 93.6397 35.4075 93.7502 35.1513C93.8607 34.895 94.0235 34.6648 94.2283 34.4753C94.6546 34.0657 95.48 33.8623 96.7044 33.8651H100.482L100.48 34.8785Z"></path><path d="M85.1627 28.6311V26.4476H82.8141L82.7891 39.8999H85.238L85.2526 33.7024C85.2526 30.2588 86.4457 28.6645 88.4851 28.4786C88.9469 28.4368 89.8182 28.4786 90.3865 28.4786V26.3326C88.7546 26.2804 87.6493 26.5123 86.7696 27.018C86.1134 27.4203 85.5625 27.9733 85.1627 28.6311Z"></path><path d="M185.089 24.3452C185.946 24.3452 186.64 23.6511 186.64 22.7948C186.64 21.9385 185.946 21.2444 185.089 21.2444C184.233 21.2444 183.539 21.9385 183.539 22.7948C183.539 23.6511 184.233 24.3452 185.089 24.3452Z"></path></g><defs><radialGradient id="shiningGradient" cx="50%" cy="50%" r="10%" fx="50%" fy="50%"><stop offset="0%" stop-color="rgba(255,255,255,1)"></stop><stop offset="100%" stop-color="rgba(255,255,255,0.1)"></stop></radialGradient></defs><circle id="circle2" cx="57" cy="11" r="7" fill="#49ceae"></circle><path id="diamond" d="M57.3106 4.98438L60.8363 11.2884L57.5175 18.0017L53.905 11.849L57.3106 4.98438Z" fill="#3EAD92"></path><circle id="circle3" cx="57" cy="11" r="13" fill="url(#shiningGradient)"></circle></svg>